# xmcd
#
# Track frame offsets:
#	150
#	14172
#	24817
#
# Disc length: 517 seconds
#
# Revision: 4
# Processed by: cddbd v1.5.2PL0 Copyright (c) Steve Scherf et al.
# Submitted via: audiograbber 1.83.01
#
DISCID=19020303
DTITLE=Etta James - I Just Wanna Make Love To You
DYEAR=1967
DGENRE=Blues
TTITLE0=I Just Wanna Make Love To You
TTITLE1=Tell Mama
TTITLE2=Stormy Weather
EXTD=YEAR: 1967
EXTT0=
EXTT1=
EXTT2=
PLAYORDER=
